<svg xmlns="http://www.w3.org/2000/svg" version="1.1" xmlns:xlink="http://www.w3.org/1999/xlink" xmlns:svgjs="http://svgjs.dev/svgjs" width="1440" height="560" preserveAspectRatio="none" viewBox="0 0 1440 560"><g mask="url(&quot;#SvgjsMask1159&quot;)" fill="none"><path d="M1464 560L0 560 L0 409.85Q-0.97 336.88, 72 335.91Q162.01 305.93, 192 395.94Q261.24 345.18, 312 414.41Q344.9 327.31, 432 360.21Q473.08 329.29, 504 370.37Q545.92 340.29, 576 382.21Q619.49 305.7, 696 349.19Q790.05 323.24, 816 417.29Q836.7 317.99, 936 338.69Q1010.21 292.9, 1056 367.12Q1139.5 330.63, 1176 414.13Q1223.53 389.65, 1248 437.18Q1266.01 383.19, 1320 401.19Q1342.1 351.28, 1392 373.38Q1434.08 343.45, 1464 385.53z" fill="rgba(112, 112, 114, 1)"></path><path d="M1512 560L0 560 L0 463.26Q40.35 383.61, 120 423.95Q167.9 399.85, 192 447.75Q253.18 436.93, 264 498.11Q318.58 432.69, 384 487.27Q405.56 388.83, 504 410.38Q574.3 360.68, 624 430.98Q690.73 377.71, 744 444.43Q820.34 400.77, 864 477.12Q889.38 430.5, 936 455.89Q960.56 408.44, 1008 433Q1094.62 399.62, 1128 486.23Q1171.61 409.84, 1248 453.45Q1274.47 407.92, 1320 434.4Q1343.4 385.8, 1392 409.21Q1478.84 376.05, 1512 462.89z" fill="rgba(208, 208, 208, 1)"></path><path d="M1488 560L0 560 L0 589.57Q34.73 504.3, 120 539.03Q173.16 472.19, 240 525.35Q306.75 520.11, 312 586.86Q366.03 520.89, 432 574.93Q460.48 483.4, 552 511.88Q596.77 484.65, 624 529.42Q676.29 509.71, 696 562Q697.73 491.73, 768 493.46Q826.91 480.37, 840 539.28Q914.75 494.02, 960 568.77Q1026.3 515.07, 1080 581.36Q1100.16 529.52, 1152 549.68Q1219.1 496.77, 1272 563.87Q1295.3 515.16, 1344 538.46Q1360.73 483.19, 1416 499.91Q1460.63 472.54, 1488 517.17z" fill="rgba(251, 246, 246, 1)"></path></g><defs><mask id="SvgjsMask1159"><rect width="1440" height="560" fill="#ffffff"></rect></mask></defs></svg>